<svg id="visual" viewBox="0 0 960 300" width="960" height="300" xmlns="http://www.w3.org/2000/svg" xmlns:xlink="http://www.w3.org/1999/xlink" version="1.1"><rect x="0" y="0" width="960" height="300" fill="#201f20"></rect><path d="M0 57L20 62.5C40 68 80 79 120 80.5C160 82 200 74 240 71.7C280 69.3 320 72.7 360 73C400 73.3 440 70.7 480 65.3C520 60 560 52 600 57.3C640 62.7 680 81.3 720 82.5C760 83.7 800 67.3 840 60.7C880 54 920 57 940 58.5L960 60L960 301L940 301C920 301 880 301 840 301C800 301 760 301 720 301C680 301 640 301 600 301C560 301 520 301 480 301C440 301 400 301 360 301C320 301 280 301 240 301C200 301 160 301 120 301C80 301 40 301 20 301L0 301Z" fill="#67579e"></path><path d="M0 121L20 123.2C40 125.3 80 129.7 120 128.5C160 127.3 200 120.7 240 117.7C280 114.7 320 115.3 360 120.3C400 125.3 440 134.7 480 138.7C520 142.7 560 141.3 600 140.8C640 140.3 680 140.7 720 132.7C760 124.7 800 108.3 840 104.3C880 100.3 920 108.7 940 112.8L960 117L960 301L940 301C920 301 880 301 840 301C800 301 760 301 720 301C680 301 640 301 600 301C560 301 520 301 480 301C440 301 400 301 360 301C320 301 280 301 240 301C200 301 160 301 120 301C80 301 40 301 20 301L0 301Z" fill="#534986"></path><path d="M0 184L20 179C40 174 80 164 120 163.2C160 162.3 200 170.7 240 167.7C280 164.7 320 150.3 360 149.3C400 148.3 440 160.7 480 166.8C520 173 560 173 600 173.8C640 174.7 680 176.3 720 179.2C760 182 800 186 840 184.5C880 183 920 176 940 172.5L960 169L960 301L940 301C920 301 880 301 840 301C800 301 760 301 720 301C680 301 640 301 600 301C560 301 520 301 480 301C440 301 400 301 360 301C320 301 280 301 240 301C200 301 160 301 120 301C80 301 40 301 20 301L0 301Z" fill="#403b6e"></path><path d="M0 226L20 228.2C40 230.3 80 234.7 120 228.3C160 222 200 205 240 197C280 189 320 190 360 196C400 202 440 213 480 211.2C520 209.3 560 194.7 600 192.5C640 190.3 680 200.7 720 202.2C760 203.7 800 196.3 840 193.5C880 190.7 920 192.3 940 193.2L960 194L960 301L940 301C920 301 880 301 840 301C800 301 760 301 720 301C680 301 640 301 600 301C560 301 520 301 480 301C440 301 400 301 360 301C320 301 280 301 240 301C200 301 160 301 120 301C80 301 40 301 20 301L0 301Z" fill="#2f2d57"></path><path d="M0 251L20 255C40 259 80 267 120 270.3C160 273.7 200 272.3 240 269.5C280 266.7 320 262.3 360 258C400 253.7 440 249.3 480 251.3C520 253.3 560 261.7 600 263.2C640 264.7 680 259.3 720 259.5C760 259.7 800 265.3 840 270.5C880 275.7 920 280.3 940 282.7L960 285L960 301L940 301C920 301 880 301 840 301C800 301 760 301 720 301C680 301 640 301 600 301C560 301 520 301 480 301C440 301 400 301 360 301C320 301 280 301 240 301C200 301 160 301 120 301C80 301 40 301 20 301L0 301Z" fill="#1f2041"></path></svg>