<svg id="visual" viewBox="0 0 960 300" width="960" height="300" xmlns="http://www.w3.org/2000/svg" xmlns:xlink="http://www.w3.org/1999/xlink" version="1.1"><rect x="0" y="0" width="960" height="300" fill="#201f20"></rect><path d="M0 49L20 50.8C40 52.7 80 56.3 120 57.7C160 59 200 58 240 62.5C280 67 320 77 360 74.8C400 72.7 440 58.3 480 51.7C520 45 560 46 600 47.7C640 49.3 680 51.7 720 60.3C760 69 800 84 840 84.3C880 84.7 920 70.3 940 63.2L960 56L960 301L940 301C920 301 880 301 840 301C800 301 760 301 720 301C680 301 640 301 600 301C560 301 520 301 480 301C440 301 400 301 360 301C320 301 280 301 240 301C200 301 160 301 120 301C80 301 40 301 20 301L0 301Z" fill="#67579e"></path><path d="M0 120L20 122.2C40 124.3 80 128.7 120 128C160 127.3 200 121.7 240 115.5C280 109.3 320 102.7 360 101.7C400 100.7 440 105.3 480 105.5C520 105.7 560 101.3 600 100.2C640 99 680 101 720 104.7C760 108.3 800 113.7 840 121C880 128.3 920 137.7 940 142.3L960 147L960 301L940 301C920 301 880 301 840 301C800 301 760 301 720 301C680 301 640 301 600 301C560 301 520 301 480 301C440 301 400 301 360 301C320 301 280 301 240 301C200 301 160 301 120 301C80 301 40 301 20 301L0 301Z" fill="#534986"></path><path d="M0 148L20 149.7C40 151.3 80 154.7 120 156C160 157.3 200 156.7 240 154C280 151.3 320 146.7 360 148.3C400 150 440 158 480 166.5C520 175 560 184 600 185.7C640 187.3 680 181.7 720 178.7C760 175.7 800 175.3 840 176.8C880 178.3 920 181.7 940 183.3L960 185L960 301L940 301C920 301 880 301 840 301C800 301 760 301 720 301C680 301 640 301 600 301C560 301 520 301 480 301C440 301 400 301 360 301C320 301 280 301 240 301C200 301 160 301 120 301C80 301 40 301 20 301L0 301Z" fill="#403b6e"></path><path d="M0 183L20 186.7C40 190.3 80 197.7 120 204.5C160 211.3 200 217.7 240 223.2C280 228.7 320 233.3 360 228C400 222.7 440 207.3 480 198.2C520 189 560 186 600 185.5C640 185 680 187 720 186.5C760 186 800 183 840 181.7C880 180.3 920 180.7 940 180.8L960 181L960 301L940 301C920 301 880 301 840 301C800 301 760 301 720 301C680 301 640 301 600 301C560 301 520 301 480 301C440 301 400 301 360 301C320 301 280 301 240 301C200 301 160 301 120 301C80 301 40 301 20 301L0 301Z" fill="#2f2d57"></path><path d="M0 278L20 273.3C40 268.7 80 259.3 120 257.2C160 255 200 260 240 263.5C280 267 320 269 360 266.7C400 264.3 440 257.7 480 254.3C520 251 560 251 600 254.3C640 257.7 680 264.3 720 263C760 261.7 800 252.3 840 249C880 245.7 920 248.3 940 249.7L960 251L960 301L940 301C920 301 880 301 840 301C800 301 760 301 720 301C680 301 640 301 600 301C560 301 520 301 480 301C440 301 400 301 360 301C320 301 280 301 240 301C200 301 160 301 120 301C80 301 40 301 20 301L0 301Z" fill="#1f2041"></path></svg>